# xmcd CD database file generated by OrangeCD 5.2
#
# Track frame offsets:
#	150
#	13117
#	25174
#	38155
#	48901
#	58309
#	68037
#	80937
#	91360
#	101388
#	111454
#	121444
#
# Disc length: 1756 seconds
#
# Revision: 0
# Processed by: cddbd v1.5.1PL0 Copyright (c) Steve Scherf et al.
# Submitted via: OrangeCD 5.2
#
DISCID=a306da0c
DTITLE=Johnny Cash - The Junkie And The Juicehead Minus Me
DYEAR=1974
DGENRE=Country
TTITLE0=The Junkie And The Juicehead Minus Me
TTITLE1=Don't Take Your Guns To Town
TTITLE2=Broken Freedom Song
TTITLE3=I Do Believe
TTITLE4=June Carter Cash - Ole Slewfoot
TTITLE5=Keep On The Sunny Side
TTITLE6=Johnny Cash and Rosey Nix - Father And Daughter
TTITLE7=Crystal Chandeliers And Burgundy
TTITLE8=Carlene Routh - Riendly Gates
TTITLE9=Billy and Rex and Oral and Bob
TTITLE10=Jesus
TTITLE11=Lay Back With Me Woman
EXTD=
EXTT0=
EXTT1=
EXTT2=
EXTT3=
EXTT4=
EXTT5=
EXTT6=
EXTT7=
EXTT8=
EXTT9=
EXTT10=
EXTT11=
PLAYORDER=
